<?xml version="1.0" encoding="utf-8"?>
<!-- Generator: Adobe Illustrator 19.0.0, SVG Export Plug-In . SVG Version: 6.00 Build 0)  -->
<svg version="1.1" id="图层_1" xmlns="http://www.w3.org/2000/svg" xmlns:xlink="http://www.w3.org/1999/xlink" x="0px" y="0px"
	 viewBox="0 0 20 21" style="enable-background:new 0 0 20 21;" xml:space="preserve">
<style type="text/css">
	.st0{fill-rule:evenodd;clip-rule:evenodd;fill:#999999;}
</style>
<g id="XMLID_2_">
	<path id="XMLID_3_" class="st0" d="M19.1,2.1l-1.7,0c0,0-0.1,0-0.1,0c0,0-0.1,0-0.1,0l-5.9,0l0-1.1c0-0.5-0.4-0.9-1-0.9
		c-0.1,0-0.2,0-0.2,0c-0.1,0-0.2,0-0.2,0c-0.5,0-0.9,0.4-0.9,0.9l0,1.1l-5.7,0c-0.1,0-0.1,0-0.2,0c-0.1,0-0.2,0-0.2,0L1,2.1
		c-0.5,0-0.9,0.2-0.9,0.7c0,0.5,0.4,0.8,0.9,0.8l1.1,0l0,15.3c0,1,0.8,1.8,1.8,1.8h0.9v0l10.4,0v0h0.9c1,0,1.8-0.8,1.8-1.9l0-15.3
		l1,0c0.5,0,0.9-0.3,0.9-0.8C20,2.3,19.6,2.1,19.1,2.1L19.1,2.1z M16.5,17.4c0,1.2-0.2,1.7-1.1,1.8l-10.8,0c-0.5-0.1-0.8-0.4-0.9-1
		l0-14.6l12.7,0l0,15.5L16.5,17.4L16.5,17.4z M7.7,5.3c-0.4,0-0.8,0.4-0.8,0.8v10.7c0,0.4,0.4,0.8,0.8,0.8c0.4,0,0.8-0.4,0.8-0.8
		V6.1C8.5,5.7,8.2,5.3,7.7,5.3L7.7,5.3z M12.5,5.3c-0.4,0-0.8,0.4-0.8,0.8v10.7c0,0.4,0.4,0.8,0.8,0.8c0.4,0,0.8-0.4,0.8-0.8V6.1
		C13.3,5.7,12.9,5.3,12.5,5.3L12.5,5.3z"/>
</g>
</svg>
