<?xml version="1.0" encoding="utf-8"?>
<!-- Generator: Adobe Illustrator 19.0.0, SVG Export Plug-In . SVG Version: 6.00 Build 0)  -->
<svg version="1.1" id="图层_1" xmlns="http://www.w3.org/2000/svg" xmlns:xlink="http://www.w3.org/1999/xlink" x="0px" y="0px"
	 viewBox="0 0 20 21" style="enable-background:new 0 0 20 21;" xml:space="preserve">
<style type="text/css">
	.st0{fill:#999999;}
</style>
<g id="XMLID_6_">
	<g id="XMLID_44_">
		<path id="XMLID_48_" class="st0" d="M16.5,5.9v11.9c0,0.4-0.3,0.7-0.7,0.7H2.4c-0.4,0-0.7-0.3-0.7-0.7V2.9c0-0.4,0.3-0.7,0.7-0.7
			h10.4c1,0,1-1.5,0-1.5H2.4c-1.2,0-2.2,1-2.2,2.2v14.9c0,1.2,1,2.2,2.2,2.2h13.4c1.2,0,2.2-1,2.2-2.2V5.9C18,4.9,16.5,4.9,16.5,5.9
			z"/>
		<path id="XMLID_47_" class="st0" d="M8.7,8.1H4.3c-1,0-1,1.5,0,1.5h4.5C9.7,9.6,9.7,8.1,8.7,8.1z"/>
		<path id="XMLID_46_" class="st0" d="M19.7,0.9c-0.3-0.3-0.8-0.3-1.1,0l-7.4,7.4C11,8.6,11,9,11.2,9.4c0.3,0.3,0.8,0.3,1.1,0
			L19.7,2l0.1-0.2C20,1.5,20,1.2,19.7,0.9z"/>
		<path id="XMLID_45_" class="st0" d="M4.3,14h8.9c1,0,1-1.5,0-1.5H4.3C3.3,12.6,3.3,14,4.3,14z"/>
	</g>
</g>
</svg>
