<?xml version="1.0" encoding="utf-8"?>
<!-- Generator: Adobe Illustrator 19.0.0, SVG Export Plug-In . SVG Version: 6.00 Build 0)  -->
<svg version="1.1" id="图层_1" xmlns="http://www.w3.org/2000/svg" xmlns:xlink="http://www.w3.org/1999/xlink" x="0px" y="0px"
	 viewBox="0 0 65 57" style="enable-background:new 0 0 65 57;" xml:space="preserve">
<style type="text/css">
	.st0{fill-rule:evenodd;clip-rule:evenodd;fill:#E9E8E8;}
	.st1{fill-rule:evenodd;clip-rule:evenodd;fill:#F5B6C1;stroke:#A26674;stroke-width:1.5;stroke-miterlimit:10;}
	.st2{fill-rule:evenodd;clip-rule:evenodd;fill:#FCE7EF;}
</style>
<g id="XMLID_2_">
	<ellipse id="XMLID_10_" class="st0" cx="32.3" cy="52.9" rx="32.3" ry="2.7"/>
	<g id="XMLID_3_">
		<path id="XMLID_6_" class="st1" d="M57.5,47.4L57.5,47.4l-4.1-32.9c-0.1-0.6-0.6-1.1-1.2-1.1H52h-6.5C44.9,6.6,39.2,1.3,32.3,1.3
			c-6.9,0-12.6,5.3-13.2,12.1h-6.5h-0.2c-0.6,0-1.1,0.5-1.2,1.1L7.2,47.4v0c0,0.1,0,0.3,0,0.4c0,2.3,1.9,4.2,4.2,4.2c0,0,0,0,0,0
			h20.9h20.9c0,0,0,0,0,0c2.3,0,4.2-1.9,4.2-4.2C57.5,47.7,57.5,47.5,57.5,47.4z M32.2,36c-1,0-1.8-0.8-1.8-1.8s0.8-1.8,1.8-1.8
			s1.8,0.8,1.8,1.8S33.2,36,32.2,36z M32.3,13.4H21.6c0.6-5.4,5.2-9.6,10.8-9.6S42.5,8,43.1,13.4H32.3z"/>
		<path id="XMLID_5_" class="st2" d="M13.7,15.8h18.6h18.6l0.8,6.4c-3.5,5.6-9.2,9.3-15.6,10.4c-0.6-1.6-2.1-2.7-3.9-2.7
			c-1.8,0-3.3,1.1-3.9,2.7c-6.3-1.1-11.9-4.8-15.4-10.3L13.7,15.8z"/>
		<path id="XMLID_4_" class="st2" d="M53.3,49.6L53.3,49.6l-20.9,0H11.4l0,0c-1,0-1.8-0.8-1.8-1.8c0-0.1,0-0.2,0-0.3l2.7-21.9
			c3.9,5,9.6,8.3,15.7,9.4c0.4,1.9,2.1,3.4,4.1,3.4c2,0,3.7-1.4,4.1-3.3c6.3-1,12-4.4,16-9.5L55,47.5c0,0.1,0,0.2,0,0.3
			C55.1,48.8,54.2,49.6,53.3,49.6z"/>
	</g>
</g>
</svg>
