<?xml version="1.0" encoding="utf-8"?>
<!-- Generator: Adobe Illustrator 19.0.0, SVG Export Plug-In . SVG Version: 6.00 Build 0)  -->
<svg version="1.1" id="图层_1" xmlns="http://www.w3.org/2000/svg" xmlns:xlink="http://www.w3.org/1999/xlink" x="0px" y="0px"
	 viewBox="0 0 65 57" style="enable-background:new 0 0 65 57;" xml:space="preserve">
<style type="text/css">
	.st0{fill-rule:evenodd;clip-rule:evenodd;fill:#E9E8E8;}
	.st1{fill-rule:evenodd;clip-rule:evenodd;fill:#FFFFFF;stroke:#5E84A7;stroke-width:1.5;stroke-miterlimit:10;}
	.st2{fill-rule:evenodd;clip-rule:evenodd;fill:#AAC8E2;stroke:#5E84A7;stroke-width:1.5;stroke-miterlimit:10;}
	.st3{fill-rule:evenodd;clip-rule:evenodd;fill:#5E84A7;}
</style>
<g id="XMLID_2_">
	<ellipse id="XMLID_26_" class="st0" cx="33.1" cy="54.3" rx="32" ry="2.7"/>
	<g id="XMLID_3_">
		<g id="XMLID_23_">
			<path id="XMLID_25_" class="st1" d="M14.2,45c-0.6,1.8-0.9,8.2,0.5,9.6c1.7,1.7,4.1-3.3,4.1-6.3C18.8,45.4,15,42.9,14.2,45z"/>
			<path id="XMLID_24_" class="st1" d="M51.9,45c0.6,1.8,0.9,8.2-0.5,9.6c-1.7,1.7-4.1-3.3-4.1-6.3C47.3,45.4,51.2,42.9,51.9,45z"/>
		</g>
		<path id="XMLID_22_" class="st2" d="M33.1,54.3C19.8,54.3,9,43.5,9,30.2S19.8,6,33.1,6s24.1,10.8,24.1,24.2S46.4,54.3,33.1,54.3z"
			/>
		<ellipse id="XMLID_21_" class="st1" cx="33.1" cy="30.2" rx="20.2" ry="20.2"/>
		<path id="XMLID_20_" class="st3" d="M34.1,28.5V17.8c0-0.5-0.4-1-1-1c-0.5,0-1,0.4-1,1v9.6l-4.6-4.6c-0.3-0.3-0.7-0.3-1,0
			c-0.3,0.3-0.3,0.7,0,1l5.1,5.1c-0.3,0.3-0.4,0.7-0.4,1.2c0,1,0.8,1.9,1.9,1.9c1,0,1.9-0.8,1.9-1.9C35,29.5,34.6,28.9,34.1,28.5z"
			/>
		<g id="XMLID_7_">
			<path id="XMLID_19_" class="st3" d="M33.7,14.3c0,0.4-0.3,0.7-0.7,0.7c-0.4,0-0.7-0.3-0.7-0.7v-1.7c0-0.4,0.3-0.7,0.7-0.7
				c0.4,0,0.7,0.3,0.7,0.7V14.3z"/>
			<path id="XMLID_18_" class="st3" d="M25.7,16.1c0.2,0.3,0.1,0.7-0.2,0.9c-0.3,0.2-0.7,0.1-0.9-0.2l-0.9-1.5
				c-0.2-0.3-0.1-0.7,0.2-0.9c0.3-0.2,0.7-0.1,0.9,0.2L25.7,16.1z"/>
			<path id="XMLID_17_" class="st3" d="M19.7,21.7c0.3,0.2,0.4,0.6,0.2,0.9c-0.2,0.3-0.6,0.4-0.9,0.2l-1.5-0.9
				c-0.3-0.2-0.4-0.6-0.2-0.9c0.2-0.3,0.6-0.4,0.9-0.2L19.7,21.7z"/>
			<path id="XMLID_16_" class="st3" d="M17.3,29.5c0.4,0,0.7,0.3,0.7,0.7s-0.3,0.7-0.7,0.7h-1.7c-0.4,0-0.7-0.3-0.7-0.7
				s0.3-0.7,0.7-0.7H17.3z"/>
			<path id="XMLID_15_" class="st3" d="M19.1,37.5c0.3-0.2,0.7-0.1,0.9,0.2c0.2,0.3,0.1,0.7-0.2,0.9l-1.5,0.9
				c-0.3,0.2-0.7,0.1-0.9-0.2c-0.2-0.3-0.1-0.7,0.2-0.9L19.1,37.5z"/>
			<path id="XMLID_14_" class="st3" d="M24.6,43.5c0.2-0.3,0.6-0.4,0.9-0.2c0.3,0.2,0.4,0.6,0.2,0.9l-0.9,1.5
				c-0.2,0.3-0.6,0.4-0.9,0.2c-0.3-0.2-0.4-0.6-0.2-0.9L24.6,43.5z"/>
			<path id="XMLID_13_" class="st3" d="M32.4,46c0-0.4,0.3-0.7,0.7-0.7s0.7,0.3,0.7,0.7v1.7c0,0.4-0.3,0.7-0.7,0.7s-0.7-0.3-0.7-0.7
				V46z"/>
			<path id="XMLID_12_" class="st3" d="M40.4,44.2c-0.2-0.3-0.1-0.7,0.2-0.9c0.3-0.2,0.7-0.1,0.9,0.2l0.9,1.5
				c0.2,0.3,0.1,0.7-0.2,0.9c-0.3,0.2-0.7,0.1-0.9-0.2L40.4,44.2z"/>
			<path id="XMLID_11_" class="st3" d="M46.4,38.6c-0.3-0.2-0.4-0.6-0.2-0.9c0.2-0.3,0.6-0.4,0.9-0.2l1.5,0.9
				c0.3,0.2,0.4,0.6,0.2,0.9s-0.6,0.4-0.9,0.2L46.4,38.6z"/>
			<path id="XMLID_10_" class="st3" d="M48.9,30.8c-0.4,0-0.7-0.3-0.7-0.7c0-0.4,0.3-0.7,0.7-0.7h1.7c0.4,0,0.7,0.3,0.7,0.7
				c0,0.4-0.3,0.7-0.7,0.7H48.9z"/>
			<path id="XMLID_9_" class="st3" d="M47.1,22.8c-0.3,0.2-0.7,0.1-0.9-0.2c-0.2-0.3-0.1-0.7,0.2-0.9l1.5-0.9
				c0.3-0.2,0.7-0.1,0.9,0.2c0.2,0.3,0.1,0.7-0.2,0.9L47.1,22.8z"/>
			<path id="XMLID_8_" class="st3" d="M41.5,16.8c-0.2,0.3-0.6,0.4-0.9,0.2c-0.3-0.2-0.4-0.6-0.2-0.9l0.9-1.5
				c0.2-0.3,0.6-0.4,0.9-0.2c0.3,0.2,0.4,0.6,0.2,0.9L41.5,16.8z"/>
		</g>
		<g id="XMLID_4_">
			<path id="XMLID_6_" class="st1" d="M9.1,10.6C8.6,7,10,4.8,12,2.8s8.5-3.9,11.1,0.9C24.3,6,9.8,15,9.1,10.6z"/>
			<path id="XMLID_5_" class="st1" d="M57,10.6c0.5-3.5-0.9-5.8-2.8-7.7c-2-2-8.5-3.9-11.1,0.9C41.8,6,56.4,15,57,10.6z"/>
		</g>
	</g>
</g>
</svg>
