<?xml version="1.0" encoding="utf-8"?>
<!-- Generator: Adobe Illustrator 19.0.0, SVG Export Plug-In . SVG Version: 6.00 Build 0)  -->
<svg version="1.1" id="图层_1" xmlns="http://www.w3.org/2000/svg" xmlns:xlink="http://www.w3.org/1999/xlink" x="0px" y="0px"
	 viewBox="0 0 65 57" style="enable-background:new 0 0 65 57;" xml:space="preserve">
<style type="text/css">
	.st0{fill-rule:evenodd;clip-rule:evenodd;fill:#E9E8E8;}
	.st1{fill:#F6BA65;}
	.st2{fill:#D87732;}
	.st3{fill:#EDE36D;stroke:#A67D36;stroke-miterlimit:10;}
</style>
<g id="XMLID_2_">
	<ellipse id="XMLID_17_" class="st0" cx="32.5" cy="54.1" rx="30.5" ry="2.6"/>
	<g id="XMLID_3_">
		<g id="XMLID_5_">
			<path id="XMLID_39_" class="st1" d="M32.3,53.6c-7,0-13.7-2.7-18.6-7.7c-5-5-7.7-11.6-7.7-18.6c0-7,2.7-13.7,7.7-18.6
				c5-5,11.6-7.7,18.6-7.7c7,0,13.7,2.7,18.6,7.7c5,5,7.7,11.6,7.7,18.6c0,7.1-2.7,13.7-7.7,18.6C45.9,50.8,39.3,53.6,32.3,53.6z
				 M25.6,50.4l0.5,0.1c2,0.5,4.1,0.8,6.2,0.8c2.1,0,4.2-0.3,6.3-0.8l0.5-0.1L35.2,36c1.2-0.4,2.3-1.1,3.3-1.9L49,44.6l0.4-0.4
				c3-3,5.2-6.7,6.3-10.8l0.1-0.5l-14.4-3.9c0.3-1.3,0.3-2.6,0-3.8l14.4-3.9L55.6,21c-1.1-4.1-3.2-7.8-6.3-10.8L49,9.8L38.5,20.3
				c-1-0.9-2.1-1.5-3.3-1.9L39,4l-0.5-0.1c-2-0.5-4.1-0.8-6.3-0.8c-2.1,0-4.2,0.3-6.2,0.8L25.6,4l3.9,14.4c-1.2,0.4-2.3,1.1-3.3,1.9
				L15.6,9.8l-0.4,0.4c-3,3-5.2,6.7-6.2,10.8l-0.1,0.5l14.4,3.9c-0.3,1.3-0.3,2.6,0,3.8L8.8,33L9,33.5c1.1,4.1,3.2,7.8,6.2,10.8
				l0.4,0.4l10.5-10.5c1,0.9,2.1,1.5,3.3,1.9L25.6,50.4z"/>
			<path id="XMLID_34_" class="st2" d="M32.3,1.4c6.9,0,13.4,2.7,18.3,7.6c4.9,4.9,7.6,11.4,7.6,18.3c0,6.9-2.7,13.4-7.6,18.3
				c-4.9,4.9-11.4,7.6-18.3,7.6c-6.9,0-13.4-2.7-18.3-7.6c-4.9-4.9-7.6-11.4-7.6-18.3c0-6.9,2.7-13.4,7.6-18.3
				C18.9,4,25.4,1.4,32.3,1.4 M28.8,18.1c-1,0.4-1.9,0.9-2.7,1.5l-9.9-9.9l-0.7-0.7l-0.7,0.7c-3.1,3.1-5.3,6.9-6.4,11.1l-0.3,1
				l1,0.3l13.5,3.6c-0.2,1-0.2,2.1,0,3.1L9.2,32.4l-1,0.3l0.3,1c1.1,4.2,3.3,8,6.4,11.1l0.7,0.7l0.7-0.7l9.9-9.9
				c0.8,0.7,1.7,1.2,2.7,1.5l-3.6,13.5l-0.3,1l1,0.3c2.1,0.5,4.2,0.8,6.4,0.8c2.2,0,4.3-0.3,6.4-0.8l1-0.3l-0.3-1l-3.6-13.5
				c1-0.4,1.9-0.9,2.7-1.5l9.9,9.9l0.7,0.7l0.7-0.7c3.1-3.1,5.3-6.9,6.4-11l0.3-1l-1-0.3l-13.5-3.6c0.2-1,0.2-2.1,0-3.1l13.5-3.6
				l1-0.3l-0.3-1c-1.1-4.2-3.3-8-6.4-11L49,9.1l-0.7,0.7l-9.9,9.9c-0.8-0.7-1.7-1.2-2.7-1.5l3.6-13.5l0.3-1l-1-0.3
				c-2.1-0.5-4.2-0.8-6.4-0.8c-2.1,0-4.3,0.3-6.4,0.8l-1,0.3l0.3,1L28.8,18.1 M32.3,0.4c-7.2,0-13.9,2.8-19,7.9
				c-5.1,5.1-7.9,11.8-7.9,19c0,7.2,2.8,13.9,7.9,19c5.1,5.1,11.8,7.9,19,7.9c7.2,0,13.9-2.8,19-7.9c5.1-5.1,7.9-11.8,7.9-19
				c0-7.2-2.8-13.9-7.9-19C46.2,3.1,39.5,0.4,32.3,0.4L32.3,0.4z M26.1,21c1.1-1.1,2.5-1.9,3.9-2.3L26.2,4.4c2-0.5,4-0.8,6.1-0.8
				c2.1,0,4.1,0.3,6.1,0.8l-3.9,14.4c1.4,0.4,2.8,1.1,3.9,2.3L49,10.5c3,3,5.1,6.6,6.1,10.6l-14.4,3.9c0.4,1.5,0.4,3,0,4.5l14.4,3.9
				c-1.1,4-3.1,7.6-6.1,10.6h0L38.5,33.4c-1.1,1.1-2.5,1.9-3.9,2.3l3.9,14.4c-2,0.5-4,0.8-6.1,0.8c-2.1,0-4.1-0.3-6.1-0.8L30,35.7
				c-1.4-0.4-2.8-1.1-3.9-2.3L15.6,43.9c-3-3-5.1-6.7-6.1-10.6l14.4-3.9c-0.4-1.5-0.4-3,0-4.5L9.5,21.1c1-3.9,3.1-7.6,6.1-10.6
				L26.1,21L26.1,21z"/>
		</g>
		<path id="XMLID_4_" class="st3" d="M33.7,19.9L32.3,13L31,19.9c-1.4,0.3-2.8,0.9-3.9,2c-2.9,2.9-2.9,7.6,0,10.5s7.6,2.9,10.5,0
			c2.9-2.9,2.9-7.6,0-10.5C36.4,20.9,35.1,20.2,33.7,19.9z"/>
	</g>
</g>
</svg>
