<?xml version="1.0" encoding="utf-8"?>
<!-- Generator: Adobe Illustrator 19.0.0, SVG Export Plug-In . SVG Version: 6.00 Build 0)  -->
<svg version="1.1" id="图层_1" xmlns="http://www.w3.org/2000/svg" xmlns:xlink="http://www.w3.org/1999/xlink" x="0px" y="0px"
	 viewBox="0 0 65 57" style="enable-background:new 0 0 65 57;" xml:space="preserve">
<style type="text/css">
	.st0{fill-rule:evenodd;clip-rule:evenodd;fill:#E9E8E8;}
	.st1{fill-rule:evenodd;clip-rule:evenodd;fill:#AF8AB8;stroke:#744C80;stroke-width:1.5;stroke-miterlimit:10;}
	.st2{fill:#FFFFFF;stroke:#744C80;stroke-width:0.5;stroke-miterlimit:10;}
	.st3{fill:#744C80;}
</style>
<g id="XMLID_2_">
	<ellipse id="XMLID_19_" class="st0" cx="31.8" cy="54.2" rx="29" ry="2.5"/>
	<g id="XMLID_3_">
		<path id="XMLID_18_" class="st1" d="M57.1,33.6c1.2-2.2,3.7-4.5,3.7-5.5c0-1.3-3.6-4.4-4.3-7c0-2.5,0.9-5.7,0.4-6.6
			c-0.6-1.1-5.3-2-7.2-3.9c-1.3-2.2-2.1-5.4-3-6c-1.1-0.6-5.6,0.9-8.2,0.2c-2.2-1.2-4.5-3.7-5.5-3.7c-1.3,0-4.4,3.6-7,4.3
			c-2.5,0-5.7-0.9-6.6-0.4c-1.1,0.6-2,5.3-3.9,7.2c-2.2,1.3-5.4,2.1-6,3c-0.6,1.1,0.9,5.6,0.2,8.2c-1.2,2.2-3.7,4.5-3.7,5.5
			c0,1.3,3.6,4.4,4.3,7c0,2.5-0.9,5.7-0.4,6.6c0.6,1.1,5.3,2,7.2,3.9c1.3,2.2,2.1,5.4,3,6c1.1,0.6,5.6-0.9,8.2-0.2
			c2.2,1.2,4.5,3.7,5.5,3.7c1.3,0,4.4-3.6,7-4.3c2.5,0,5.7,0.9,6.6,0.4c1.1-0.6,2-5.3,3.9-7.2c2.2-1.3,5.4-2.1,6-3
			C58,40.7,56.4,36.2,57.1,33.6z"/>
		<g id="XMLID_8_">
			<path id="XMLID_16_" class="st2" d="M17.1,22.5h5.8v1.1h-4.6v3.6h4.6v1.1h-4.6V34h-1.2V22.5z"/>
			<path id="XMLID_13_" class="st2" d="M24.9,22.5h2.3c1.3,0,2.2,0.1,2.6,0.2c0.5,0.1,0.9,0.3,1.2,0.6c0.3,0.3,0.6,0.6,0.8,1
				c0.2,0.4,0.3,0.9,0.3,1.3c0,1-0.3,1.8-1,2.3s-1.7,0.8-2.9,0.8l4.2,5.4h-1.4l-4.1-5.4h-0.7V34h-1.2V22.5z M26.1,23.6v3.9h2
				c1,0,1.7-0.1,2.2-0.5s0.7-0.8,0.7-1.5c0-0.7-0.2-1.2-0.7-1.5c-0.5-0.3-1.2-0.5-2.1-0.5H26.1z"/>
			<path id="XMLID_11_" class="st2" d="M34.6,22.5h6.6v1.1h-5.4v3.6h5.4v1.1h-5.4v4.5h5.4V34h-6.6V22.5z"/>
			<path id="XMLID_9_" class="st2" d="M43.2,22.5h6.6v1.1h-5.4v3.6h5.4v1.1h-5.4v4.5h5.4V34h-6.6V22.5z"/>
		</g>
		<path id="XMLID_7_" class="st3" d="M33.4,47.2c-7.1,0-13.4-4-16.5-9.9h-1.4c3.3,6.6,10.1,11.2,18,11.2s14.7-4.5,18-11.2H50
			C46.8,43.2,40.6,47.2,33.4,47.2z"/>
		<path id="XMLID_6_" class="st3" d="M39.6,9.4l-0.4,1.2c4.4,1.4,8.1,4.4,10.4,8.3H51C48.6,14.4,44.5,11,39.6,9.4z"/>
		<path id="XMLID_5_" class="st3" d="M15.9,18.9h1.5c2.3-3.9,6-6.9,10.4-8.3l-0.4-1.2C22.4,11,18.3,14.4,15.9,18.9z"/>
		<polygon id="XMLID_4_" class="st3" points="33.4,6.2 34.2,8.6 36.7,8.6 34.7,10.1 35.5,12.5 33.4,11 31.4,12.5 32.2,10.1 
			30.2,8.6 32.7,8.6 		"/>
	</g>
</g>
</svg>
