<?xml version="1.0" encoding="utf-8"?>
<!-- Generator: Adobe Illustrator 19.0.0, SVG Export Plug-In . SVG Version: 6.00 Build 0)  -->
<svg version="1.1" id="图层_1" xmlns="http://www.w3.org/2000/svg" xmlns:xlink="http://www.w3.org/1999/xlink" x="0px" y="0px"
	 viewBox="0 0 65 57" style="enable-background:new 0 0 65 57;" xml:space="preserve">
<style type="text/css">
	.st0{fill-rule:evenodd;clip-rule:evenodd;fill:#E9E8E8;}
	.st1{fill:#BCE0EE;stroke:#5E8393;stroke-width:1.5;stroke-miterlimit:10;}
</style>
<g id="XMLID_2_">
	<ellipse id="XMLID_6_" class="st0" cx="33" cy="54.2" rx="28.7" ry="2.4"/>
	<g id="XMLID_3_">
		<path id="XMLID_5_" class="st1" d="M22.7,2.5c0.1,0.2,0.2,0.6,0.4,1.3c0.2,0.6,0.4,1.3,0.5,1.9C23.7,6,23.8,6.5,24,7.3
			c0.2,0.8,0.4,1.6,0.5,2.5c0.2,0.9,0.3,1.7,0.5,2.4c0.1,0.7,0.2,1.2,0.3,1.5c0.1,0.4,0.2,0.9,0.2,1.4c0.1,0.5-0.1,1-0.5,1.4
			c-0.4,0.5-0.8,0.8-1.1,0.9c-0.2,0.1-0.3,0.1-0.5,0.1c0.2,0.6,0.3,1.1,0.5,1.7c0.1,0.5,0.2,1,0.4,1.5c0.1,0.5,0.3,1,0.4,1.4
			c0.1,0.4,0.2,0.8,0.2,1.3c0.1,0.4,0.2,0.8,0.2,1.2l0.2,1.3c0-0.1,0.1-0.2,0.2-0.2c0.2-0.1,0.5-0.1,1.1-0.1c0.3,0,0.6,0.1,1,0.2
			c0.4,0.1,0.8,0.2,1.2,0.3c0.4,0.1,0.8,0.2,1.3,0.3c0.4,0.1,0.7,0.2,1,0.3c0.3,0.1,0.5,0.1,0.8,0.2c0.2,0.1,0.5,0.1,0.7,0.1
			c0.2,0,0.5,0,0.8,0c0.3,0,0.8-0.1,1.3-0.3c1.1-0.3,2-0.6,2.7-0.7c0.7-0.2,1.2-0.3,1.6-0.3c0.4-0.1,0.7-0.1,1.1-0.1
			c0.3,0,0.6,0.1,0.8,0.3c0-0.4,0.1-0.9,0.2-1.3c0.1-0.4,0.2-0.9,0.3-1.3c0.1-0.5,0.2-1,0.3-1.5c0.1-0.5,0.2-1,0.4-1.5
			c0.1-0.5,0.3-0.9,0.4-1.3c0.2-0.4,0.3-0.9,0.4-1.3c-0.3-0.1-0.6-0.2-0.8-0.4c-0.5-0.3-0.9-0.7-1.2-1.3c-0.2-0.5-0.2-1-0.1-1.5
			c0.2-0.5,0.3-1,0.4-1.4c0-0.2,0.1-0.6,0.2-1.2c0.1-0.6,0.2-1.2,0.3-1.9l0.5-2c0.1-0.7,0.3-1.3,0.4-1.8c0.2-0.9,0.5-1.7,0.7-2.4
			c0.3-0.7,0.4-1.2,0.4-1.5c0.1-0.4,0.1-0.7-0.1-0.8c-0.1-0.1-0.3-0.2-0.6-0.2c-0.4,0-0.8,0.2-1.1,0.6c-0.3,0.4-0.5,0.8-0.6,1.1
			c-0.1,0.1-0.2,0.4-0.4,1s-0.4,1.2-0.7,1.8c-0.3,0.7-0.6,1.4-0.9,2c-0.3,0.7-0.6,1.2-0.9,1.6c-0.3,0.4-0.7,0.9-1.1,1.4
			c-0.4,0.5-0.9,0.9-1.4,1.4c-0.5,0.4-1,0.8-1.5,1.1c-0.5,0.3-0.9,0.4-1.3,0.4c-0.5,0-1-0.2-1.5-0.5c-0.5-0.3-1.1-0.7-1.6-1.2
			c-0.5-0.5-1-1-1.5-1.6C28,9.6,27.6,9,27.3,8.4c-0.6-1.1-1.1-2.2-1.5-3.2c-0.4-1-0.7-1.7-0.8-2c-0.4-1-0.8-1.7-1.3-2
			c-0.4-0.3-0.8-0.4-1.1-0.2c-0.3,0.2-0.4,0.4-0.3,0.7C22.5,2.1,22.6,2.3,22.7,2.5z"/>
		<path id="XMLID_4_" class="st1" d="M51,50.2c-0.4-0.3-0.7-0.5-0.9-0.7s-0.5-0.8-1-1.8c-0.5-1-1-2.2-1.5-3.5
			c-0.5-1.3-1.1-2.6-1.6-3.9c-0.5-1.3-1-2.4-1.3-3.2c-0.5-1.2-1-2.5-1.4-3.7c-0.4-1.2-0.8-2.3-1.1-3.2c-0.4-1.1-0.7-2.1-1-3
			c-1.1,0.4-2.1,0.7-3.2,1c-0.9,0.2-1.7,0.5-2.6,0.7c-0.9,0.2-1.6,0.3-2.2,0.3c-0.3,0-0.7,0-1.2-0.1c-0.5-0.1-1-0.2-1.5-0.3
			c-0.5-0.1-1.1-0.2-1.6-0.4c-0.5-0.1-0.9-0.3-1.3-0.4c-0.3-0.1-0.6-0.2-0.9-0.3c-0.3-0.1-0.6-0.2-0.8-0.3c-0.3-0.1-0.5-0.2-0.7-0.2
			c-0.5,1.4-0.9,2.8-1.4,4.1c-0.4,1.2-0.9,2.4-1.3,3.8c-0.5,1.3-0.9,2.5-1.4,3.6c-0.3,0.7-0.7,1.7-1.2,2.9c-0.5,1.2-1,2.3-1.4,3.4
			c-0.5,1.1-0.9,2.1-1.3,3c-0.4,0.9-0.7,1.3-0.8,1.5c-0.2,0.1-0.3,0.2-0.5,0.4s-0.4,0.3-0.6,0.4c-0.2,0.2-0.4,0.3-0.5,0.5
			c-0.1,0.2-0.2,0.3-0.1,0.5c0.1,0.5,0.5,0.8,1.3,1.1c0.8,0.2,1.6,0.4,2.4,0.6c0.6,0.1,1.5,0.3,2.8,0.4c1.3,0.2,2.6,0.3,4.1,0.5
			c1.5,0.2,3,0.3,4.4,0.4c1.4,0.1,2.6,0.2,3.6,0.2c0.8,0,1.9,0,3.2-0.1c1.3-0.1,2.7-0.2,4.1-0.4c1.4-0.1,2.7-0.3,4-0.4
			c1.3-0.2,2.3-0.3,3.1-0.4c1.5-0.3,2.6-0.6,3.2-0.9c0.6-0.3,0.9-0.6,0.9-1.1C51.6,50.7,51.4,50.4,51,50.2z"/>
	</g>
</g>
</svg>
