<?xml version="1.0" encoding="utf-8"?>
<!-- Generator: Adobe Illustrator 19.0.0, SVG Export Plug-In . SVG Version: 6.00 Build 0)  -->
<svg version="1.1" id="图层_1" xmlns="http://www.w3.org/2000/svg" xmlns:xlink="http://www.w3.org/1999/xlink" x="0px" y="0px"
	 viewBox="0 0 65 57" style="enable-background:new 0 0 65 57;" xml:space="preserve">
<style type="text/css">
	.st0{fill-rule:evenodd;clip-rule:evenodd;fill:#E9E8E8;}
	.st1{fill-rule:evenodd;clip-rule:evenodd;fill:#39813E;}
	.st2{fill-rule:evenodd;clip-rule:evenodd;fill:#8CC885;stroke:#39813E;stroke-width:1.5;stroke-miterlimit:10;}
	.st3{fill:none;stroke:#39813E;stroke-width:1.5;stroke-miterlimit:10;}
</style>
<g id="XMLID_2_">
	<ellipse id="XMLID_11_" class="st0" cx="33.2" cy="49.2" rx="29.8" ry="2.5"/>
	<path id="XMLID_10_" class="st1" d="M44.6,29.5c0,0.4-0.3,0.6-0.6,0.6c-0.4,0-0.6-0.3-0.6-0.6v-9.9c0-0.4,0.3-0.6,0.6-0.6
		c0.4,0,0.6,0.3,0.6,0.6V29.5z"/>
	<path id="XMLID_5_" class="st2" d="M60.9,3.7H6c-1.4,0-2.6,1.2-2.6,2.6v37.3c0,1.4,1.2,2.6,2.6,2.6h54.9c1.4,0,2.6-1.2,2.6-2.6V6.3
		C63.5,4.9,62.3,3.7,60.9,3.7z M48.7,40.4c0,0.4-0.3,0.6-0.6,0.6H9.2c-0.4,0-0.6-0.3-0.6-0.6V9.5c0-0.4,0.3-0.6,0.6-0.6H48
		c0.4,0,0.6,0.3,0.6,0.6V40.4z M56,34.8c-1.8,0-3.3-1.5-3.3-3.3c0-1.8,1.5-3.3,3.3-3.3c1.8,0,3.3,1.5,3.3,3.3
		C59.3,33.4,57.8,34.8,56,34.8z M56,21.6c-1.8,0-3.3-1.5-3.3-3.3s1.5-3.3,3.3-3.3c1.8,0,3.3,1.5,3.3,3.3S57.8,21.6,56,21.6z"/>
	<line id="XMLID_4_" class="st3" x1="12.7" y1="46.2" x2="12.7" y2="50.1"/>
	<line id="XMLID_3_" class="st3" x1="54.6" y1="46.2" x2="54.6" y2="50.1"/>
</g>
</svg>
