<?xml version="1.0" encoding="utf-8"?>
<!-- Generator: Adobe Illustrator 19.0.0, SVG Export Plug-In . SVG Version: 6.00 Build 0)  -->
<svg version="1.1" id="图层_1" xmlns="http://www.w3.org/2000/svg" xmlns:xlink="http://www.w3.org/1999/xlink" x="0px" y="0px"
	 viewBox="0 0 65 57" style="enable-background:new 0 0 65 57;" xml:space="preserve">
<style type="text/css">
	.st0{fill-rule:evenodd;clip-rule:evenodd;fill:#E9E8E8;}
	
		.st1{fill-rule:evenodd;clip-rule:evenodd;fill:#83B965;stroke:#4D5139;stroke-linecap:round;stroke-linejoin:round;stroke-miterlimit:10;}
	
		.st2{fill-rule:evenodd;clip-rule:evenodd;fill:#D22728;stroke:#893548;stroke-linecap:round;stroke-linejoin:round;stroke-miterlimit:10;}
	.st3{fill:#FFFFFF;}
</style>
<g id="XMLID_2_">
	<ellipse id="XMLID_11_" class="st0" cx="32.3" cy="53.8" rx="30.4" ry="2.6"/>
	<g id="XMLID_3_">
		<path id="XMLID_7_" class="st1" d="M34,5.1c0.8,1.2,1.8,2.5,2.8,3.4c-0.8,1.1-0.8,2.9-0.8,3l0,0.3c0,0,0.4-0.2,0.4-0.2
			c-0.1,0.3-0.1,0.6-0.1,0.9c0.1,1.6,0.9,3.2,1,3.3l0.1,0.2c0,0,0.3-0.2,0.5-0.4c0.5,2,2.5,3.6,2.6,3.6l0.2,0.2c0,0,0.1-0.4,0.2-0.5
			c1.5,1.6,3.3,2.1,3.4,2.1l0.2,0c0,0,0.2-0.3,0.2-0.5c1.1,1.1,3.6,1,3.7,1l0.2,0c0,0-0.1-0.3-0.1-0.4c1.9,0.6,3.8,0.3,3.9,0.2
			l0.1,0c0,0,0-0.3,0-0.5c1.6,0.2,4.3-1.1,4.4-1.1l0.3-0.1c0,0-0.2-0.2-0.3-0.2c1.2-0.2,2.9-0.8,3-0.9l0.3-0.1c0,0-0.3-0.3-0.4-0.5
			c0,0,0.1-0.1,0.1-0.1c1.5-0.8,2.1-1.3,2.2-1.7c0.1-0.1,0-0.2-0.2-0.3c0,0,0,0-0.1,0c0,0,0,0-0.1,0c-0.1,0-0.1,0-0.2,0
			c-0.2,0-0.5,0-0.7,0c-1.3,0-2.3,0-2.3,0l0.2-0.4c-1.4-0.1-2.8-0.5-2.8-0.5l0.6-0.3c-1.8-0.3-3.1-1.5-3.1-1.5l0.5,0
			c-2.1-1.9-2.9-2.1-2.9-2.1l0.5-0.1c-1.3-1.5-3.2-1.7-3.2-1.7L49.2,9c-1.9-1.5-3.8-1.3-3.8-1.3l0.4-0.4c-2.1-0.7-4.2,0.2-4.2,0.2
			L42,7.1c-1.8-0.8-4.7,1-4.7,1c-1.1-1.1-2.1-2.4-2.9-3.5"/>
		<path id="XMLID_6_" class="st2" d="M22.7,13.1c-1.1,1.5-2.2,3.4-3,5.5c-1.3,3.2-2.3,6.5-2.6,10c-0.1,1.5-0.1,3,0,4.5
			c-1.7,0.2-3.4-0.3-5,0.5c-3.5,1.8-4.1,6.8-3.7,10.3c0.1,1.2,0.6,2.5,1.1,3.6c1.1,2.3,2.8,4.4,5.2,5.3c0.6,0.2,1.3,0.4,2,0.5
			c2.9,0.3,6.5,0.3,9.2-0.9c2.6-1.1,4.4-3.4,5.2-6.1c0.6-1.8,1-4.1,0.9-6c-0.1-2-0.8-3.9-2.2-5.3c-0.4-0.4-0.9-0.8-1.3-1.1
			c-2.6-1.8-5.9-1.5-8.8-1c-0.2,0-0.1-6.6,0-7.2c0.3-2.2,0.8-4.4,1.7-6.4c0.7-1.8,1.7-3.5,2.8-5.1c1.1-1.6,2.4-3.1,3.9-4.4
			c0.9-0.8,1.7-1.5,3.7-2.9C32,7.4,32,8,32.1,8.6c0.5,3.4,1,6.8,1.8,10.1c0.8,3.5,2.3,6.8,3.8,10c0.9,1.9,1.8,3.7,2.6,5.6
			c-1.5-0.5-3.9,0.5-4.9,1.7c-2.4,3.1-2.2,7.8-0.9,11.2c0.6,1.5,1.5,2.8,2.7,3.8c3.4,2.8,9.3,4,13.6,0.7c2.5-1.9,4.6-4.6,5.1-7.8
			c0.4-2.6-0.4-5.2-1.9-7.3c-0.4-0.6-0.9-1.1-1.3-1.6c-0.9-0.9-1.6-1.6-2.9-2.1c-1.7-0.6-3.8-0.9-5.4,0c-0.6,0.3-1.1,0.7-1.7,0.9
			c-0.1,0.1-3.9-7.8-4.2-8.5c-2.6-5.6-3.9-11.1-4.7-17.2c-0.1-1.1-0.2-2.2-0.3-3.4c0.1-0.1,0.1-0.2,0.2-0.3c0.1,0.2,0.3,0.4,0.4,0.5
			l0.3-0.5C34.2,4.4,34.1,4.2,34,4c0.4-0.7,0.7-1.3,0.8-1.7c0.1-0.4-0.3-1-1-1.4c-0.8-0.4-1.6-0.4-1.8,0c0,0,0,0.1,0,0.1
			c-0.6,0.8-1,3.3-1.9,4.4c-1.1,1.3-2.6,2.2-3.7,3.5C25,10.3,23.7,11.6,22.7,13.1z"/>
		<path id="XMLID_5_" class="st3" d="M13.5,37.5c-1.2,1.4-1.7,3.4-1.2,5.2c0.2,0.4,0,0.9-0.4,1.1c-0.4,0.2-0.9,0-1.1-0.4
			c0-0.1-0.1-0.1-0.1-0.2c-0.6-2.5,0-5,1.7-6.9c0.1-0.1,0.2-0.2,0.3-0.2c0.4-0.2,0.9,0,1.1,0.4C13.9,36.9,13.8,37.3,13.5,37.5z"/>
		<path id="XMLID_4_" class="st3" d="M39.7,38.6c-1.2,1.4-1.7,3.4-1.2,5.2c0.2,0.4,0,0.9-0.4,1.1c-0.4,0.2-0.9,0-1.1-0.4
			c0-0.1-0.1-0.1-0.1-0.2c-0.6-2.5,0-5,1.7-6.9c0.1-0.1,0.2-0.2,0.3-0.2c0.4-0.2,0.9,0,1.1,0.4C40.1,38,40,38.4,39.7,38.6z"/>
	</g>
</g>
</svg>
