<?xml version="1.0" encoding="utf-8"?>
<!-- Generator: Adobe Illustrator 15.0.0, SVG Export Plug-In . SVG Version: 6.00 Build 0)  -->
<!DOCTYPE svg PUBLIC "-//W3C//DTD SVG 1.1//EN" "http://www.w3.org/Graphics/SVG/1.1/DTD/svg11.dtd">
<svg version="1.1" id="图层_1" xmlns="http://www.w3.org/2000/svg" xmlns:xlink="http://www.w3.org/1999/xlink" x="0px" y="0px"
	 width="50px" height="30px" viewBox="0 0 50 30" enable-background="new 0 0 50 30" xml:space="preserve">
<path fill-rule="evenodd" clip-rule="evenodd" fill="#9C9C9C" d="M32.848,30c-2.395,0-4.479-1.702-4.957-4.048l-0.027-0.138h-5.726
	l-0.028,0.138C21.634,28.298,19.55,30,17.152,30c-2.397,0-4.481-1.702-4.957-4.048l-0.029-0.138H7.908V10.819l7.326-4.172V2.966
	C15.233,1.33,16.567,0,18.205,0h20.916c1.639,0,2.972,1.33,2.972,2.967v22.848h-4.26l-0.028,0.138
	C37.329,28.298,35.244,30,32.848,30 M32.848,21.629c-1.826,0-3.313,1.485-3.313,3.312s1.486,3.312,3.313,3.312
	s3.313-1.485,3.313-3.312S34.674,21.629,32.848,21.629 M17.152,21.629c-1.826,0-3.313,1.485-3.313,3.312s1.486,3.312,3.313,3.312
	c1.827,0,3.312-1.485,3.312-3.312S18.979,21.629,17.152,21.629 M32.848,19.881c2.396,0,4.48,1.702,4.957,4.048l0.028,0.138h2.514
	v-21.1c0-0.673-0.551-1.219-1.226-1.219H18.205c-0.675,0-1.225,0.546-1.225,1.218v4.699l-7.326,4.171v12.23h2.512l0.029-0.138
	c0.476-2.346,2.56-4.048,4.957-4.048c2.396,0,4.48,1.702,4.958,4.048l0.028,0.138h5.726l0.027-0.138
	C28.367,21.583,30.452,19.881,32.848,19.881"/>
<polygon fill-rule="evenodd" clip-rule="evenodd" fill="#9C9C9C" points="21.51,18.489 21.51,16.742 26.743,16.742 26.743,11.511 
	28.49,11.511 28.49,18.489 "/>
</svg>
