<?xml version="1.0" encoding="utf-8"?>
<!-- Generator: Adobe Illustrator 15.0.0, SVG Export Plug-In . SVG Version: 6.00 Build 0)  -->
<!DOCTYPE svg PUBLIC "-//W3C//DTD SVG 1.1//EN" "http://www.w3.org/Graphics/SVG/1.1/DTD/svg11.dtd">
<svg version="1.1" id="图层_1" xmlns="http://www.w3.org/2000/svg" xmlns:xlink="http://www.w3.org/1999/xlink" x="0px" y="0px"
	 width="50px" height="30px" viewBox="0 0 50 30" enable-background="new 0 0 50 30" xml:space="preserve">
<path fill="#9C9C9C" d="M25.01,0.001c4.223,0,8.444-0.003,12.667,0c2.372,0.001,3.65,1.196,3.693,3.613
	c0.059,3.148,0.019,6.297,0.019,9.446c0.002,4.188-0.059,8.375,0.021,12.561c0.051,2.675-1.105,4.428-4.303,4.378
	c-8.229-0.127-16.461-0.041-24.69-0.043c-2.518,0-3.793-1.186-3.804-3.723C8.579,18.718,8.581,11.204,8.612,3.689
	c0.01-2.5,1.309-3.688,3.838-3.688C16.636,0,20.823,0.001,25.01,0.001 M10.248,8.352c-0.031,0.227-0.066,0.364-0.066,0.501
	c-0.004,5.836-0.015,11.672,0,17.507c0.004,1.404,0.637,1.962,2.08,1.963c8.377,0.001,16.755,0.001,25.132,0
	c1.921,0,2.418-0.483,2.419-2.387c0.004-5.513,0.001-11.027,0.001-16.54c0-0.342,0-0.685,0-1.047h-9.899c0,0.435,0,0.82,0,1.205
	c0,2.291,0.026,4.583-0.011,6.873c-0.023,1.451-1.085,2.268-2.14,1.547c-1.91-1.308-3.641-1.334-5.534,0.004
	c-0.846,0.599-1.784,0.103-2.059-0.912c-0.101-0.372-0.093-0.779-0.093-1.17c-0.009-2.495-0.006-4.992-0.006-7.544H10.248z
	 M28.222,16.434V1.703h-6.438v14.725c0.841-0.423,1.591-0.748,2.285-1.165c0.659-0.397,1.23-0.374,1.883,0.018
	C26.642,15.697,27.391,16.017,28.222,16.434 M20.039,1.639c-2.881,0-5.661-0.022-8.44,0.014c-0.859,0.011-1.291,0.699-1.358,1.423
	c-0.107,1.155-0.028,2.327-0.028,3.498h9.827V1.639z M39.793,6.604c0-1.2,0.069-2.305-0.019-3.397
	c-0.088-1.068-0.724-1.561-1.79-1.572c-0.964-0.011-1.928-0.002-2.893-0.002h-5.116v4.972H39.793z"/>
</svg>
