<?xml version="1.0" encoding="utf-8"?>
<!-- Generator: Adobe Illustrator 15.0.0, SVG Export Plug-In . SVG Version: 6.00 Build 0)  -->
<!DOCTYPE svg PUBLIC "-//W3C//DTD SVG 1.1//EN" "http://www.w3.org/Graphics/SVG/1.1/DTD/svg11.dtd">
<svg version="1.1" id="图层_1" xmlns="http://www.w3.org/2000/svg" xmlns:xlink="http://www.w3.org/1999/xlink" x="0px" y="0px"
	 width="50px" height="30px" viewBox="0 0 50 30" enable-background="new 0 0 50 30" xml:space="preserve">
<path fill-rule="evenodd" clip-rule="evenodd" fill="#9C9C9C" d="M35.54,2.812c0-0.518-0.42-0.937-0.938-0.937H13.041
	c-0.518,0-0.938,0.419-0.938,0.937v24.376c0,0.518,0.42,0.938,0.938,0.938h9.375V30H12.103c-1.035,0-1.875-0.84-1.875-1.874V1.875
	C10.228,0.838,11.067,0,12.103,0H35.54c1.035,0,1.876,0.838,1.876,1.875v8.437H35.54V2.812z M17.259,20.625h3.749
	c0.259,0,0.47,0.209,0.47,0.469v0.938c0,0.258-0.211,0.469-0.47,0.469h-3.749c-0.259,0-0.47-0.211-0.47-0.469v-0.938
	C16.79,20.834,17,20.625,17.259,20.625 M16.79,8.906V7.969C16.79,7.709,17,7.5,17.259,7.5h14.062c0.26,0,0.469,0.209,0.469,0.469
	v0.937c0,0.258-0.209,0.469-0.469,0.469H17.259C17,9.375,16.79,9.164,16.79,8.906 M16.79,15.469v-0.938
	c0-0.259,0.211-0.468,0.47-0.468h6.563c0.258,0,0.469,0.209,0.469,0.468v0.938c0,0.257-0.211,0.468-0.469,0.468h-6.563
	C17,15.937,16.79,15.726,16.79,15.469 M25.241,29.659v-5.127l9.063-8.796c0.979-0.982,2.569-0.982,3.551,0l1.183,1.188
	c0.98,0.982,0.98,2.575,0,3.558l-8.775,9.178H25.241z M26.752,28.168h3.51l-3.51-3.636V28.168z M37.263,19.889l0.592-0.593
	c0.326-0.327,0.326-0.859,0-1.187l-1.185-1.186c-0.326-0.328-0.856-0.328-1.184,0l-0.592,0.593c-0.326,0.327-0.585,0.6-0.591,0.593
	l2.366,2.372C36.646,20.42,36.936,20.217,37.263,19.889 M36.078,21.075l-2.367-2.372l-5.123,4.991l2.511,2.516L36.078,21.075z"/>
</svg>
