<?xml version="1.0" encoding="utf-8"?>
<!-- Generator: Adobe Illustrator 15.0.0, SVG Export Plug-In . SVG Version: 6.00 Build 0)  -->
<!DOCTYPE svg PUBLIC "-//W3C//DTD SVG 1.1//EN" "http://www.w3.org/Graphics/SVG/1.1/DTD/svg11.dtd">
<svg version="1.1" id="图层_1" xmlns="http://www.w3.org/2000/svg" xmlns:xlink="http://www.w3.org/1999/xlink" x="0px" y="0px"
	 width="50px" height="30px" viewBox="0 0 50 30" enable-background="new 0 0 50 30" xml:space="preserve">
<g>
	<path fill-rule="evenodd" clip-rule="evenodd" fill="#9C9C9C" d="M39.008,22.165c-0.609,0-1.104,0.494-1.104,1.105v3.416
		c0,0.609-0.496,1.104-1.105,1.104H10.934c-0.609,0-1.104-0.495-1.104-1.104V6.714c0-0.608,0.496-1.106,1.104-1.106h25.969
		c0.607,0,1.104,0.498,1.104,1.106V9.96c0,0.611,0.494,1.106,1.105,1.106c0.609,0,1.104-0.495,1.104-1.106V6.714
		c0-1.828-1.486-3.315-3.313-3.315h-5.949V2.492c0-1.374-1.117-2.492-2.49-2.492H13.45c-1.373,0-2.492,1.118-2.492,2.492v0.906
		h-0.024c-1.828,0-3.315,1.487-3.315,3.315v19.973c0,1.827,1.487,3.313,3.315,3.313h25.865c1.828,0,3.316-1.486,3.316-3.313v-3.416
		C40.115,22.659,39.619,22.165,39.008,22.165 M12.619,2.492c0-0.458,0.372-0.83,0.831-0.83h15.013c0.457,0,0.83,0.372,0.83,0.83
		v0.906H12.619V2.492z"/>
	<path fill-rule="evenodd" clip-rule="evenodd" fill="#9C9C9C" d="M31.27,17.421c0.199,0.201,0.48,0.316,0.766,0.316
		c0.283,0,0.564-0.115,0.764-0.316c0.199-0.199,0.314-0.477,0.316-0.758c0-0.002,0-0.002,0-0.004v-0.002
		c-0.002-0.282-0.117-0.561-0.316-0.76c-0.199-0.2-0.48-0.317-0.764-0.317s-0.566,0.117-0.766,0.317
		c-0.197,0.199-0.314,0.478-0.316,0.76l0,0v0.002v0.004l0,0C30.955,16.944,31.072,17.222,31.27,17.421"/>
	<path fill-rule="evenodd" clip-rule="evenodd" fill="#9C9C9C" d="M40.42,12.252H28.996c-1.08,0-1.961,0.879-1.961,1.962v4.879
		c0,1.082,0.881,1.962,1.961,1.962H40.42c1.082,0,1.961-0.88,1.961-1.962v-4.879C42.381,13.131,41.502,12.252,40.42,12.252
		 M40.24,18.913H29.176v-4.521H40.24V18.913z"/>
</g>
</svg>
