<?xml version="1.0" encoding="utf-8"?>
<!-- Generator: Adobe Illustrator 15.0.0, SVG Export Plug-In . SVG Version: 6.00 Build 0)  -->
<!DOCTYPE svg PUBLIC "-//W3C//DTD SVG 1.1//EN" "http://www.w3.org/Graphics/SVG/1.1/DTD/svg11.dtd">
<svg version="1.1" id="图层_1" xmlns="http://www.w3.org/2000/svg" xmlns:xlink="http://www.w3.org/1999/xlink" x="0px" y="0px"
	 width="50px" height="30px" viewBox="0 0 50 30" enable-background="new 0 0 50 30" xml:space="preserve">
<path fill="#9C9C9C" d="M25.473,30c-6.986,0-14.438-0.386-14.438-4.994c0-3.271,4.524-6.745,10.301-7.913
	c-0.018,0,0.055-0.06,0.09-0.176c0.068-0.224-0.052-0.416-0.165-0.536c-0.012-0.013-0.038-0.043-0.064-0.073
	c-1.832-1.927-2.971-4.98-2.971-7.98c0-4.903,2.98-8.327,7.248-8.327c4.269,0,7.249,3.424,7.249,8.327
	c0,3.044-1.22,6.229-3.107,8.116c-0.104,0.117-0.154,0.301-0.104,0.47c0.035,0.115,0.109,0.183,0.15,0.192
	c5.727,1.144,10.249,4.619,10.249,7.9C39.91,29.614,32.458,30,25.473,30 M25.473,1.911c-3.192,0-5.336,2.579-5.336,6.417
	c0,2.539,0.942,5.1,2.463,6.683c0.026,0.027,0.051,0.054,0.073,0.084c0.609,0.658,0.829,1.551,0.581,2.375
	c-0.226,0.749-0.804,1.32-1.506,1.49c-5.202,1.052-8.803,4.027-8.803,6.047c0,2.731,6.696,3.082,12.527,3.082
	c5.832,0,12.526-0.351,12.526-3.082c0-2.027-3.598-5.005-8.758-6.036c-0.757-0.189-1.336-0.762-1.561-1.503
	c-0.246-0.813-0.041-1.688,0.55-2.34c1.578-1.582,2.579-4.238,2.579-6.8C30.81,4.489,28.665,1.911,25.473,1.911"/>
<path fill="#9C9C9C" d="M40.881,28.953c-0.395,0-0.748-0.243-0.89-0.613c-0.146-0.375-0.039-0.801,0.264-1.065
	c0.703-0.611,1.032-1.332,1.032-2.269c0-2.079-2.155-4.424-5.491-5.975c-0.179-0.083-0.329-0.222-0.428-0.393
	c-0.703-1.232-1.09-2.701-1.09-4.136c0-3.338,2.126-5.761,5.058-5.761c2.931,0,5.058,2.423,5.058,5.761
	c0,2.025-0.799,4.148-2.041,5.445c3.832,0.824,6.729,3.14,6.729,5.432c0,3.396-5.525,3.516-8.18,3.573H40.881z M42.258,21.888
	c0.613,1.007,0.939,2.061,0.939,3.118c0,0.703-0.126,1.354-0.38,1.947c3.545-0.26,4.354-0.975,4.354-1.573
	C47.171,24.257,45.104,22.597,42.258,21.888 M36.891,17.437c1.373,0.666,2.553,1.439,3.509,2.286
	c0.058-0.367,0.223-0.717,0.487-1.007c0.967-0.971,1.596-2.649,1.596-4.213c0-2.303-1.265-3.849-3.146-3.849
	c-1.883,0-3.147,1.546-3.147,3.849C36.188,15.514,36.436,16.543,36.891,17.437"/>
<path fill="#9C9C9C" d="M10.082,28.965h-0.007c-3.201-0.021-9.158-0.061-9.158-3.586c0-2.272,2.875-4.578,6.728-5.431
	c-1.258-1.315-2.039-3.4-2.039-5.444c0-3.338,2.126-5.762,5.057-5.762c2.932,0,5.06,2.424,5.06,5.762
	c0,1.842-0.662,3.741-1.769,5.085c-0.071,0.086-0.154,0.156-0.248,0.214c-2.534,1.512-4.047,3.457-4.047,5.203
	c0,0.94,0.333,1.665,1.046,2.28c0.304,0.26,0.413,0.685,0.272,1.059C10.837,28.718,10.48,28.965,10.082,28.965 M9.09,21.314
	c-0.215,0.218-0.482,0.374-0.777,0.443c-3.153,0.64-5.484,2.437-5.484,3.621c0,0.924,1.789,1.471,5.323,1.629
	c-0.269-0.609-0.404-1.276-0.404-2.002C7.748,23.756,8.215,22.497,9.09,21.314 M10.663,10.653c-1.881,0-3.146,1.547-3.146,3.851
	c0,1.573,0.579,3.154,1.513,4.127c0.025,0.026,0.049,0.055,0.071,0.084c0.459,0.492,0.631,1.193,0.434,1.849
	C9.49,20.712,9.427,20.853,9.35,20.98c0.802-0.984,1.891-1.911,3.227-2.728c0.765-0.995,1.235-2.415,1.235-3.749
	C13.812,12.2,12.547,10.653,10.663,10.653"/>
</svg>
