<?xml version="1.0" encoding="utf-8"?>
<!-- Generator: Adobe Illustrator 19.0.0, SVG Export Plug-In . SVG Version: 6.00 Build 0)  -->
<svg version="1.1" id="图层_1" xmlns="http://www.w3.org/2000/svg" xmlns:xlink="http://www.w3.org/1999/xlink" x="0px" y="0px"
	 viewBox="0 0 36 36" style="enable-background:new 0 0 36 36;" xml:space="preserve">
<style type="text/css">
	.st0{fill:#56AC43;}
</style>
<g id="XMLID_2_">
	<path id="XMLID_10_" class="st0" d="M10.4,10.8c-0.8,0-1.5,0.5-1.5,1.3c0,0.8,0.8,1.3,1.5,1.3c0.8,0,1.3-0.5,1.3-1.3
		C11.7,11.3,11.2,10.8,10.4,10.8z"/>
	<path id="XMLID_9_" class="st0" d="M21,18.6c-0.5,0-1,0.5-1,1c0,0.5,0.5,1,1,1c0.8,0,1.3-0.5,1.3-1C22.3,19.1,21.8,18.6,21,18.6z"
		/>
	<path id="XMLID_8_" class="st0" d="M17.4,13.3c0.8,0,1.3-0.5,1.3-1.3c0-0.8-0.5-1.3-1.3-1.3c-0.8,0-1.5,0.5-1.5,1.3
		C15.9,12.8,16.7,13.3,17.4,13.3z"/>
	<path id="XMLID_7_" class="st0" d="M26.5,18.6c-0.5,0-1,0.5-1,1c0,0.5,0.5,1,1,1c0.7,0,1.3-0.5,1.3-1
		C27.8,19.1,27.3,18.6,26.5,18.6z"/>
	<path id="XMLID_3_" class="st0" d="M30.9,0.1H5c-2.7,0-5,2.2-5,5v25.9c0,2.8,2.2,5,5,5h25.9c2.7,0,5-2.2,5-5V5.1
		C35.9,2.3,33.7,0.1,30.9,0.1z M13.7,24c-1.2,0-2.3-0.3-3.5-0.5l-3.5,1.8l1-3.1c-2.5-1.8-4-4.1-4-7c0-4.9,4.5-8.8,10-8.8
		c4.9,0,9.2,3.1,10.1,7.3c-0.3,0-0.6-0.1-1-0.1c-4.8,0-8.5,3.7-8.5,8.2c0,0.8,0.1,1.5,0.3,2.2C14.3,24,14,24,13.7,24z M28.8,28
		l0.8,2.6L26.8,29c-1,0.3-2,0.5-3,0.5c-4.8,0-8.5-3.4-8.5-7.5c0-4.1,3.8-7.5,8.5-7.5c4.5,0,8.5,3.4,8.5,7.5
		C32.3,24.3,30.8,26.4,28.8,28z"/>
</g>
</svg>
